<svg width="192" height="192" xmlns="http://www.w3.org/2000/svg" xmlns:xlink="http://www.w3.org/1999/xlink" xml:space="preserve" overflow="hidden"><defs><clipPath id="clip0"><rect x="234" y="256" width="192" height="192"/></clipPath></defs><g clip-path="url(#clip0)" transform="translate(-234 -256)"><path d="M350.77 429.264C344.025 431.072 337.048 432 330 432 285.888 432 250 396.112 250 352 250 307.888 285.888 272 330 272 374.112 272 410 307.888 410 352 410 359.052 409.077 366.027 407.268 372.774 405.221 370.576 402.935 368.604 400.444 366.909 401.471 362.029 402 357.038 402 352 402 312.299 369.701 280 330 280 290.299 280 258 312.299 258 352 258 391.701 290.299 424 330 424 335.036 424 340.032 423.477 344.912 422.45 346.605 424.937 348.575 427.22 350.77 429.264ZM410 400C410 382.355 395.645 368 378 368 360.355 368 346 382.355 346 400 346 417.645 360.355 432 378 432 395.645 432 410 417.645 410 400ZM402 400C402 413.233 391.234 424 378 424 364.766 424 354 413.233 354 400 354 386.767 364.766 376 378 376 391.234 376 402 386.767 402 400ZM370 348 334 348 334 300 326 300 326 356 370 356 370 348ZM382 396 374 396 374 416 382 416 382 396ZM378 384C375.818 384 374 385.818 374 388 374 390.182 375.818 392 378 392 380.182 392 382 390.182 382 388 382 385.818 380.182 384 378 384Z" fill="#848689"/></g></svg>