<svg width="192" height="192" xmlns="http://www.w3.org/2000/svg" xmlns:xlink="http://www.w3.org/1999/xlink" xml:space="preserve" overflow="hidden"><defs><clipPath id="clip0"><rect x="747" y="205" width="192" height="192"/></clipPath></defs><g clip-path="url(#clip0)" transform="translate(-747 -205)"><path d="M851.2 345C851.07 346.32 851 347.65 851 349 851 350.35 851.07 351.68 851.2 353L803 353 803 345 851.2 345ZM795 253C795 261.822 787.822 269 779 269 770.178 269 763 261.822 763 253 763 244.178 770.178 237 779 237 787.822 237 795 244.178 795 253ZM787 253C787 248.589 783.411 245 779 245 774.589 245 771 248.589 771 253 771 257.411 774.589 261 779 261 783.411 261 787 257.411 787 253ZM795 301C795 309.822 787.822 317 779 317 770.178 317 763 309.822 763 301 763 292.178 770.178 285 779 285 787.822 285 795 292.178 795 301ZM787 301C787 296.589 783.411 293 779 293 774.589 293 771 296.589 771 301 771 305.411 774.589 309 779 309 783.411 309 787 305.411 787 301ZM795 349C795 357.822 787.822 365 779 365 770.178 365 763 357.822 763 349 763 340.178 770.178 333 779 333 787.822 333 795 340.178 795 349ZM787 349C787 344.589 783.411 341 779 341 774.589 341 771 344.589 771 349 771 353.411 774.589 357 779 357 783.411 357 787 353.411 787 349ZM803 249 803 257 923 257 923 249 803 249ZM803 305 923 305 923 297 803 297 803 305ZM895 333 887 333 887 345 875 345 875 353 887 353 887 365 895 365 895 353 907 353 907 345 895 345 895 333ZM923 349C923 366.645 908.645 381 891 381 873.355 381 859 366.645 859 349 859 331.355 873.355 317 891 317 908.645 317 923 331.355 923 349ZM915 349C915 335.766 904.234 325 891 325 877.766 325 867 335.766 867 349 867 362.234 877.766 373 891 373 904.234 373 915 362.234 915 349Z" fill="#848689"/></g></svg>