<svg width="192" height="192" xmlns="http://www.w3.org/2000/svg" xmlns:xlink="http://www.w3.org/1999/xlink" xml:space="preserve" overflow="hidden"><defs><clipPath id="clip0"><rect x="954" y="388" width="192" height="192"/></clipPath></defs><g clip-path="url(#clip0)" transform="translate(-954 -388)"><path d="M1074 452 1010 452 1010 444 1074 444 1074 452ZM1074 464 1010 464 1010 472 1074 472 1074 464ZM1050 484 1010 484 1010 492 1050 492 1050 484ZM1042 536 1010 536 1010 544 1042 544 1042 536ZM1090 536 1058 536 1058 544 1090 544 1090 536ZM1098 512.971 1098 556 1002 556 1002 412 1098 412 1098 447.05C1100.34 444.842 1103.05 443.168 1106 442.095L1106 404 994 404 994 564 1106 564 1106 504.971 1098 512.971ZM1124.83 474.83 1124.83 474.829 1080.16 519.496 1047.68 530.325 1058.5 497.839 1103.17 453.171 1103.17 453.17C1109.14 447.2 1118.86 447.2 1124.83 453.17 1130.8 459.142 1130.8 468.858 1124.83 474.83ZM1060.32 517.675 1070.59 514.252 1063.75 507.405 1060.32 517.675ZM1119.17 469.172C1122.02 466.32 1122.02 461.68 1119.17 458.828 1116.32 455.975 1111.68 455.975 1108.83 458.828L1108.83 458.829 1067.66 500 1078 510.343 1119.17 469.171 1119.17 469.172Z" fill="#848689"/></g></svg>