<svg width="192" height="192" xmlns="http://www.w3.org/2000/svg" xmlns:xlink="http://www.w3.org/1999/xlink" xml:space="preserve" overflow="hidden"><defs><clipPath id="clip0"><rect x="753" y="268" width="192" height="192"/></clipPath></defs><g clip-path="url(#clip0)" transform="translate(-753 -268)"><path d="M777 300.1 777 444 877 444 877 330.5 850.8 300 777 300.1ZM853 314.8 864.3 328 853 328 853 314.8ZM785 436 785 308.1 845 308 845 336 869 336 869 436 785 436ZM847.8 361.1 862.6 376 847.8 390.9 842.1 385.3 851.3 376.1 842.1 366.9 847.8 361.1ZM811.8 366.7 802.6 375.9 811.8 385.1 806.1 390.7 791.4 376 806.2 361.1 811.8 366.7ZM833.3 350.5 840.7 353.6 820.7 401.6 813.3 398.5 833.3 350.5ZM894.8 284 825 284.1 825 292.1 889 292 889 320 913 320 913 420 885 420 885 428 921 428 921 314.5 894.8 284ZM897 298.8 908.3 312 897 312 897 298.8ZM886.2 369.2 895.4 360 886.2 350.8 891.9 345.2 906.6 360 891.8 374.9 886.2 369.2Z" fill="#848689"/></g></svg>