<svg width="192" height="192" xmlns="http://www.w3.org/2000/svg" xmlns:xlink="http://www.w3.org/1999/xlink" xml:space="preserve" overflow="hidden"><defs><clipPath id="clip0"><rect x="812" y="236" width="192" height="192"/></clipPath></defs><g clip-path="url(#clip0)" transform="translate(-812 -236)"><path d="M844 326.146 854.08 326.146C859.451 326.146 862.601 328.998 862.601 333.839 862.601 338.447 859.517 341.167 854.312 341.167L849.305 341.167 849.305 349.854 844 349.854 844 326.146ZM853.748 337.221C856.135 337.221 857.428 335.994 857.428 333.739 857.428 331.485 856.202 330.357 853.781 330.357L849.305 330.357 849.305 337.221 853.748 337.221ZM866.65 326.146 875.436 326.146C882.93 326.146 887.273 330.457 887.273 337.917 887.273 345.51 882.897 349.854 875.271 349.854L866.65 349.854 866.65 326.146ZM875.536 345.643C879.581 345.643 881.736 342.957 881.736 337.983 881.736 333.043 879.548 330.357 875.503 330.357L871.955 330.357 871.955 345.643 875.536 345.643ZM891.654 326.146 908 326.146 908 330.424 896.959 330.424 896.959 336.69 905.48 336.69 905.48 340.835 896.959 340.835 896.959 349.854 891.654 349.854 891.654 326.146ZM953.815 252 872 252 872 308 828 308 828 368 872 368 872 412 984 412 984 286.497 953.815 252ZM956 266.646 971.185 284 956 284 956 266.646ZM836 316 916 316 916 360 836 360 836 316ZM880 404 880 368 924 368 924 308 880 308 880 260 948 260 948 292 976 292 976 404 880 404Z" fill="#848689"/></g></svg>