<svg width="192" height="192" xmlns="http://www.w3.org/2000/svg" xmlns:xlink="http://www.w3.org/1999/xlink" xml:space="preserve" overflow="hidden"><defs><clipPath id="clip0"><rect x="746" y="256" width="192" height="192"/></clipPath></defs><g clip-path="url(#clip0)" transform="translate(-746 -256)"><path d="M882 364 838 364 838 308 846 308 846 356 882 356 882 364ZM908.829 297.171 896.829 285.171 891.171 290.829 903.171 302.829 908.829 297.171ZM862 272 822 272 822 280 862 280 862 272ZM794 332 762 332 762 340 794 340 794 332ZM794 364 762 364 762 372 794 372 794 364ZM794 348 770 348 770 356 794 356 794 348ZM842 288C815.409 288 792.155 302.501 779.686 324L789.117 324C800.651 307.111 820.05 296 842 296 877.29 296 906 324.71 906 360 906 395.29 877.29 424 842 424 813.694 424 789.637 405.522 781.218 380L772.848 380C781.538 409.998 809.239 432 842 432 881.701 432 914 399.701 914 360 914 320.299 881.701 288 842 288Z" fill="#848689"/></g></svg>