<svg width="192" height="192" xmlns="http://www.w3.org/2000/svg" xmlns:xlink="http://www.w3.org/1999/xlink" xml:space="preserve" overflow="hidden"><defs><clipPath id="clip0"><rect x="507" y="256" width="192" height="192"/></clipPath></defs><g clip-path="url(#clip0)" transform="translate(-507 -256)"><path d="M636.171 313.171 641.829 318.829 623 337.657 612.171 326.829 617.829 321.171 623 326.343 636.171 313.171ZM623 354.343 617.829 349.171 612.171 354.829 623 365.657 641.829 346.829 636.171 341.171 623 354.343ZM623 382.343 617.829 377.171 612.171 382.829 623 393.657 641.829 374.829 636.171 369.171 623 382.343ZM659 280 659 432 547 432 547 280 575 280 575 272 631 272 631 280 659 280ZM583 288 623 288 623 280 583 280 583 288ZM651 288 631 288 631 296 575 296 575 288 555 288 555 424 651 424 651 288ZM563 332 603 332 603 324 563 324 563 332ZM563 360 603 360 603 352 563 352 563 360ZM563 388 603 388 603 380 563 380 563 388Z" fill="#848689"/></g></svg>