<svg width="192" height="192" xmlns="http://www.w3.org/2000/svg" xmlns:xlink="http://www.w3.org/1999/xlink" xml:space="preserve" overflow="hidden"><defs><clipPath id="clip0"><rect x="376" y="293" width="192" height="192"/></clipPath></defs><g clip-path="url(#clip0)" transform="translate(-376 -293)"><path d="M444 417 432 417 432 409 444 409 444 397 452 397 452 409 464 409 464 417 452 417 452 429 444 429 444 417ZM464 361 432 361 432 369 464 369 464 361ZM512 401 480 401 480 409 512 409 512 401ZM512 417 480 417 480 425 512 425 512 417ZM486.829 379.829 496 370.657 505.171 379.829 510.829 374.171 501.657 365 510.829 355.829 505.171 350.171 496 359.343 486.829 350.171 481.171 355.829 490.343 365 481.171 374.171 486.829 379.829ZM536 325 536 453 408 453 408 325 536 325ZM528 333 416 333 416 445 528 445 528 333Z" fill="#848689"/></g></svg>