<svg width="192" height="192" xmlns="http://www.w3.org/2000/svg" xmlns:xlink="http://www.w3.org/1999/xlink" xml:space="preserve" overflow="hidden"><defs><clipPath id="clip0"><rect x="844" y="266" width="192" height="192"/></clipPath></defs><g clip-path="url(#clip0)" transform="translate(-844 -266)"><path d="M1020 305.999 1020 409.999 940.069 409.999 940.069 401.999 1012 401.999 1012 313.999 880 313.999 880 337.947 872 337.947 872 305.999 1020 305.999ZM1004 321.999 928 321.999 928 329.999 1004 329.999 1004 321.999ZM928 345.999 952.096 345.999 952.096 337.999 928 337.999 928 345.999ZM951.656 379.624 967.656 343.624 960.345 340.375 944.345 376.375 951.656 379.624ZM946.561 389.072 917.056 413.66 916.041 406.565C914.364 394.841 904.029 385.999 892 385.999 878.767 385.999 868 396.765 868 409.999L868.001 414 860.001 414.002 860 410C860 395.723 869.399 383.603 882.333 379.495 876.179 376.081 872 369.521 872 361.999 872 350.971 880.973 341.999 892 341.999 903.028 341.999 912 350.971 912 361.999 912 369.517 907.826 376.074 901.677 379.489 911.116 382.456 918.815 389.628 922.287 398.887L941.44 382.926 946.561 389.072ZM880 361.999C880 368.616 885.384 373.999 892 373.999 898.617 373.999 904 368.616 904 361.999 904 355.382 898.617 349.999 892 349.999 885.384 349.999 880 355.382 880 361.999Z" fill="#848689"/></g></svg>